<svg xmlns="http://www.w3.org/2000/svg" xmlns:xlink="http://www.w3.org/1999/xlink" width="361.945" height="484.286" viewBox="0 0 361.945 484.286">
  <defs>
    <linearGradient id="linear-gradient" x1="-5.462" y1="11.847" x2="-5.476" y2="15.084" gradientUnits="objectBoundingBox">
      <stop offset="0"/>
      <stop offset="0.14" stop-opacity="0.49"/>
      <stop offset="1" stop-opacity="0"/>
    </linearGradient>
    <linearGradient id="linear-gradient-2" x1="-87.177" y1="93.342" x2="-87.201" y2="92.077" gradientUnits="objectBoundingBox">
      <stop offset="0"/>
      <stop offset="0.17" stop-opacity="0.729"/>
      <stop offset="0.29" stop-opacity="0.361"/>
      <stop offset="1" stop-opacity="0"/>
    </linearGradient>
    <linearGradient id="linear-gradient-3" x1="-86.944" y1="93.259" x2="-87.204" y2="92.162" xlink:href="#linear-gradient"/>
    <linearGradient id="linear-gradient-4" x1="-11.275" y1="463.612" x2="-11.273" y2="462.483" xlink:href="#linear-gradient-2"/>
    <linearGradient id="linear-gradient-5" x1="-161.077" y1="153.162" x2="-159.046" y2="151.134" xlink:href="#linear-gradient-2"/>
    <linearGradient id="linear-gradient-6" x1="-136.756" y1="152.939" x2="-137.235" y2="151.378" xlink:href="#linear-gradient-2"/>
    <linearGradient id="linear-gradient-7" x1="-39.92" y1="442.676" x2="-39.835" y2="438.487" xlink:href="#linear-gradient-2"/>
    <linearGradient id="linear-gradient-8" x1="-48.265" y1="108.069" x2="-48.857" y2="104.958" xlink:href="#linear-gradient-2"/>
    <linearGradient id="linear-gradient-9" x1="-48.303" y1="107.87" x2="-48.895" y2="104.759" xlink:href="#linear-gradient-2"/>
    <linearGradient id="linear-gradient-10" x1="-84.421" y1="107.53" x2="-81.756" y2="106.369" gradientUnits="objectBoundingBox">
      <stop offset="0"/>
      <stop offset="0.17" stop-opacity="0.729"/>
      <stop offset="0.26" stop-opacity="0.549"/>
      <stop offset="1" stop-opacity="0"/>
    </linearGradient>
    <linearGradient id="linear-gradient-11" x1="-83.084" y1="107.676" x2="-83.152" y2="106.144" xlink:href="#linear-gradient-2"/>
    <linearGradient id="linear-gradient-12" x1="-40.615" y1="109.52" x2="-39.615" y2="109.52" gradientUnits="objectBoundingBox">
      <stop offset="0"/>
      <stop offset="0.08" stop-opacity="0.812"/>
      <stop offset="1" stop-opacity="0"/>
    </linearGradient>
    <linearGradient id="linear-gradient-13" x1="-40.539" y1="79.482" x2="-38.764" y2="79.763" xlink:href="#linear-gradient-12"/>
    <linearGradient id="linear-gradient-14" x1="-34.687" y1="95.252" x2="-31.257" y2="95.66" gradientUnits="objectBoundingBox">
      <stop offset="0" stop-color="#fff"/>
      <stop offset="0.07" stop-color="#fff" stop-opacity="0.871"/>
      <stop offset="0.17" stop-color="#fff" stop-opacity="0.671"/>
      <stop offset="0.27" stop-color="#fff" stop-opacity="0.49"/>
      <stop offset="0.37" stop-color="#fff" stop-opacity="0.341"/>
      <stop offset="0.48" stop-color="#fff" stop-opacity="0.212"/>
      <stop offset="0.59" stop-color="#fff" stop-opacity="0.122"/>
      <stop offset="0.7" stop-color="#fff" stop-opacity="0.051"/>
      <stop offset="0.83" stop-color="#fff" stop-opacity="0"/>
      <stop offset="0.99" stop-color="#fff" stop-opacity="0"/>
    </linearGradient>
    <linearGradient id="linear-gradient-15" x1="-196.336" y1="257.191" x2="-199.816" y2="255.962" xlink:href="#linear-gradient-12"/>
  </defs>
  <g id="fitness-app" transform="translate(-94.531 -8.54)">
    <g id="background_fitness-app-43">
      <path id="Path_24" data-name="Path 24" d="M220.65,46.42c-12.91,11.5-22.2,26.59-34.96,38.27-15.28,13.99-34.73,22.41-52.23,33.5s-34.15,26.62-38.03,46.95C88.6,201,122.48,230.3,136.61,263.96c21.78,51.92-3.64,117.63,27.51,164.54,25.38,38.19,77.03,46.74,122.75,50.3,36.24,2.84,79.02,1.87,100.42-27.51,20.04-27.52,10.82-65.95,18.52-99.11,6.38-27.48,24.83-52.85,22.3-80.95-4.15-45.99-60.44-70.67-73.05-115.1-9.91-34.88,9.39-75.09-7.11-107.4-22.64-44.39-96.54-29.72-127.29-2.31Z" fill="#007aff" opacity="0.18" style="isolation: isolate"/>
    </g>
    <g id="shadow_fitness-app-43">
      <path id="Path_25" data-name="Path 25" d="M161.72,453.36c-2.75,4.06-.5,11.24,4.39,11.03L129.5,485.43c7.3,6.3,17.85,6.78,27.51,6.92q149.085,2.175,298.08-5.61c4.06-5.87-1.48-13.9-7.83-17.18s-14.02-4.69-18.66-10.12c-2.65-3.12-3.97-7.3-6.83-10.21-4.95-5.08-12.92-5.24-19.99-5.08-46.1,1.18-92.2,2.51-138.31,3.75-21.54.6-87.45-15.65-101.76,5.46Z" fill="rgba(0,0,0,0)" opacity="0.19" style="isolation: isolate"/>
    </g>
    <g id="phone_fitness-app-43">
      <rect id="Rectangle_7" data-name="Rectangle 7" width="216.1" height="348.74" rx="19.85" transform="translate(183.25 109.95)" fill="#007aff"/>
      <rect id="Rectangle_8" data-name="Rectangle 8" width="216.1" height="348.74" rx="19.85" transform="translate(183.25 109.95)" fill="url(#linear-gradient)"/>
      <path id="Path_26" data-name="Path 26" d="M389.01,139.43V418.87a17.336,17.336,0,0,1-.48,4.06,17.937,17.937,0,0,1-17.47,13.92H211.55A17.955,17.955,0,0,1,193.6,418.9h0V139.43a17.954,17.954,0,0,1,17.95-17.95H371.06a17.955,17.955,0,0,1,17.95,17.95Z" fill="#007aff"/>
      <path id="Path_27" data-name="Path 27" d="M389.01,139.43V418.87a17.336,17.336,0,0,1-.48,4.06L247.74,434.89a17.955,17.955,0,0,1-19.4-16.38L204.75,140.07a17.94,17.94,0,0,1,12.35-18.59H371.06a17.955,17.955,0,0,1,17.95,17.95Z" fill="#007aff"/>
      <path id="Path_28" data-name="Path 28" d="M304.61,451.6H284.05a4.59,4.59,0,0,1-4.59-4.59h0a4.6,4.6,0,0,1,4.59-4.6h20.56A4.59,4.59,0,0,1,309.2,447h0a4.59,4.59,0,0,1-4.58,4.6h0Z" fill="#007aff"/>
    </g>
    <g id="fitnes_2_fitness-app-43">
      <rect id="Rectangle_9" data-name="Rectangle 9" width="163.42" height="72.83" rx="15.25" transform="translate(211.27 238.91)" fill="#fff"/>
      <rect id="Rectangle_10" data-name="Rectangle 10" width="12.56" height="45.83" rx="5.43" transform="translate(347.72 252.71)" fill="#007aff"/>
      <rect id="Rectangle_11" data-name="Rectangle 11" width="114.97" height="9.16" transform="translate(235.17 271.05)" fill="#007aff"/>
      <path id="Path_29" data-name="Path 29" d="M224.04,262.44h1.8v27.85h-1.8a6.21,6.21,0,0,1-6.21-6.21h0V268.67a6.212,6.212,0,0,1,6.21-6.22h0Z" fill="#007aff"/>
      <rect id="Rectangle_12" data-name="Rectangle 12" width="12.56" height="45.83" rx="5.43" transform="translate(225.68 252.71)" fill="#007aff"/>
      <path id="Path_30" data-name="Path 30" d="M238.23,258.14v34.97a5.433,5.433,0,0,1-5.42,5.43h-1.7a5.429,5.429,0,0,1-5.43-5.43h0V258.14a5.435,5.435,0,0,1,5.42-5.44h1.71a5.429,5.429,0,0,1,5.42,5.44h0Z" fill="url(#linear-gradient-2)"/>
      <path id="Path_31" data-name="Path 31" d="M360.27,258.14v34.97a5.435,5.435,0,0,1-5.43,5.43h-1.7a5.444,5.444,0,0,1-5.44-5.43V258.14a5.439,5.439,0,0,1,5.44-5.44h1.7A5.437,5.437,0,0,1,360.27,258.14Z" fill="url(#linear-gradient-3)"/>
      <path id="Path_32" data-name="Path 32" d="M361.9,290.35h-1.8V262.5h1.8a6.21,6.21,0,0,1,6.21,6.21v15.41a6.212,6.212,0,0,1-6.21,6.22h0Z" fill="#007aff"/>
      <rect id="Rectangle_13" data-name="Rectangle 13" width="109.48" height="9.15" transform="translate(238.23 271.05)" fill="url(#linear-gradient-4)"/>
      <path id="Path_33" data-name="Path 33" d="M224.04,262.44h1.8v27.85h-1.8a6.21,6.21,0,0,1-6.21-6.21h0V268.67a6.212,6.212,0,0,1,6.21-6.22h0Z" fill="url(#linear-gradient-5)"/>
      <path id="Path_34" data-name="Path 34" d="M361.9,290.35h-1.8V262.5h1.8a6.21,6.21,0,0,1,6.21,6.21v15.41a6.212,6.212,0,0,1-6.21,6.22h0Z" fill="url(#linear-gradient-6)"/>
    </g>
    <g id="fitnes_3_fitness-app-43">
      <rect id="Rectangle_14" data-name="Rectangle 14" width="163.42" height="72.83" rx="15.25" transform="translate(207.23 334.06)" fill="#fff"/>
      <rect id="Rectangle_15" data-name="Rectangle 15" width="31.91" height="9.16" transform="translate(275.42 367.72)" fill="#007aff"/>
      <rect id="Rectangle_16" data-name="Rectangle 16" width="26.31" height="37.97" rx="7.51" transform="translate(249.11 353.32)" fill="#007aff"/>
      <rect id="Rectangle_17" data-name="Rectangle 17" width="26.31" height="37.97" rx="7.51" transform="translate(307.32 353.31)" fill="#007aff"/>
      <path id="Path_35" data-name="Path 35" d="M262.26,353.3v37.96h-5.64a7.5,7.5,0,0,1-7.51-7.5V360.83a7.5,7.5,0,0,1,7.5-7.51h.02l5.64-.02Z" fill="#007aff"/>
      <path id="Path_36" data-name="Path 36" d="M320.47,353.3v37.96h-5.64a7.5,7.5,0,0,1-7.51-7.5V360.83a7.5,7.5,0,0,1,7.5-7.51h.02l5.64-.02Z" fill="#007aff"/>
      <rect id="Rectangle_18" data-name="Rectangle 18" width="31.91" height="9.16" transform="translate(275.42 367.72)" fill="url(#linear-gradient-7)"/>
      <rect id="Rectangle_19" data-name="Rectangle 19" width="26.31" height="37.97" rx="7.51" transform="translate(249.11 353.32)" fill="url(#linear-gradient-8)"/>
      <rect id="Rectangle_20" data-name="Rectangle 20" width="26.31" height="37.97" rx="7.51" transform="translate(307.32 353.31)" fill="url(#linear-gradient-9)"/>
      <path id="Path_37" data-name="Path 37" d="M262.26,353.3v37.96h-5.64a7.5,7.5,0,0,1-7.51-7.5V360.83a7.5,7.5,0,0,1,7.5-7.51h.02l5.64-.02Z" fill="url(#linear-gradient-10)"/>
      <path id="Path_38" data-name="Path 38" d="M320.47,353.3v37.96h-5.64a7.5,7.5,0,0,1-7.51-7.5V360.83a7.5,7.5,0,0,1,7.5-7.51h.02l5.64-.02Z" fill="url(#linear-gradient-11)"/>
    </g>
    <g id="fitnes_1_fitness-app-43">
      <rect id="Rectangle_21" data-name="Rectangle 21" width="163.42" height="65.6" rx="12.41" transform="translate(211.27 144.57)" fill="#fff"/>
      <path id="Path_39" data-name="Path 39" d="M255.25,163.8s-12.34,14.54-9.8,19.61,25.56,4.82,25.56,4.82l4.87,21.9h32.96l5.09-21.51s22.14,0,23.53-6.77-11.36-20.28-11.36-20.28-.68-4.87-2.88-4.56-6.42.5-7.1,2.87,2.6,4.23,2.6,4.23-1.72.95-1.22,1.62,4.2.81,4.2.81,2.03,10.08,4.06,10.75c0,0-12.06-7.59-21.75-4.55,0,0-5.64,4.55-4.79-.06.24-1.33,1.18-5.74,1.18-5.74s3.04-1.86,3.04-3.04-1.69-1.18-2.2-.67,1.18-4.94-2.37-6.27-10.64-2.86-13.69,1.87-.09,6.49-2.62,7.86l1.44,1.69s-1,3.69.25,4.23c3.3,1.42,2.07,2.25.34,2.7a4.64,4.64,0,0,1-4.32-1.07c-1.41-1.3-7.24-2.77-11.19-1.15-10.25,4.21-14.23,4.76-14.23,4.76s4.82-.93,6.68-8.37,4.31-9.97,4.31-9.97,3.13-.33,3.13-.81-1.44-1.52-1.44-1.52,1.1-2.77-.48-3.55a31.049,31.049,0,0,0-4.96-1.57s-1.93.45-2.26,3.83-4.59,7.93-4.59,7.93Z" fill="#007aff"/>
    </g>
    <g id="character_fitness-app-43">
      <path id="Path_40" data-name="Path 40" d="M276.32,79.78s19.14-17.71,28.63-20.08,37.89,40.27,37.89,40.27l-4.37,3.19L305.58,80.1s-35.51,40.26-54.11,27.18,24.85-27.5,24.85-27.5Z" fill="#231f20"/>
      <path id="Path_41" data-name="Path 41" d="M240.04,14.85s5.61-3.2,7.21-2.26,7.3,43.08,7.3,43.08L227.57,45.28l12.47-30.42Z" fill="#007aff"/>
      <path id="Path_42" data-name="Path 42" d="M240.04,14.85s5.61-3.2,7.21-2.26,7.3,43.08,7.3,43.08L227.57,45.28l12.47-30.42Z" fill="url(#linear-gradient-12)"/>
      <path id="Path_43" data-name="Path 43" d="M237.47,12.17s3.16,2.34,3.49,4.87c.53,4.06,2.33,4.19,4.49,5.35,1.4.75-.48,3.61-.48,3.61s3.05,4.95,2.1,8.53-7.46,8.42-19.02,5.79-13.9-10.1-11.12-15.69,8.41-12.79,20.54-12.46Z" fill="#ffb4a3"/>
      <path id="Path_44" data-name="Path 44" d="M238.43,11.62c-.16-.24.63,1.08-2.37.81-1.16-.11-3.92,1.12-5.27,3.5-2.21,3.89-3.12,1.9-4.72,4.87s-1.96,4.58-.24,7.49a10.606,10.606,0,0,1,1.7,3.24c-.93-.27-1.42-1.32-2.29-1.72a2.273,2.273,0,0,0-2.87,1.3,3.682,3.682,0,0,0,.47,3.34,10.26,10.26,0,0,0,2.49,2.43,12,12,0,0,1,2.55,2.43c.21.3.4.71.19,1.02a.969.969,0,0,1-.66.32,10.222,10.222,0,0,1-5.68-.99,18.165,18.165,0,0,1-10.41-17.39,6.548,6.548,0,0,1,.53-2.43,7.627,7.627,0,0,1,1.62-2.08,34.822,34.822,0,0,1,15.15-8.68c1.96-.54,4.13-.88,5.96,0s2.98.9,3.86,2.57" fill="#231f20"/>
      <path id="Path_45" data-name="Path 45" d="M226.26,39.84l2.31,5.68s2.32,3.7,9.86,2.9,5.85-1.67,5.85-1.67-3.81-.21-6.36-6.42-11.66-.48-11.66-.48Z" fill="#ffb4a3"/>
      <path id="Path_46" data-name="Path 46" d="M263.4,103.13c-7.49,2.62-15.92,1.62-20.42.72-2.01-.39-3.24-.75-3.24-.75S203.7,55.49,227.57,45.27c0,0,2.43-.86,11.7.26s14.29,7.9,15.26,10.13,2.69,15.02,2.69,15.02l9.82,10.96s7.23,17.75-3.63,21.5Z" fill="#007aff"/>
      <path id="Path_47" data-name="Path 47" d="M246.71,91.32l-3.73,12.53c-2.01-.39-3.24-.75-3.24-.75S203.7,55.49,227.57,45.27l6.68,19.47s-4.1,5.07,4.18,15.83l8.28,10.76Z" fill="url(#linear-gradient-13)"/>
      <path id="Path_48" data-name="Path 48" d="M267.03,81.63s19.14-17.71,28.62-20.08,47.19,38.41,47.19,38.41l-13.67,5.05L296.28,81.95s-32.24,38.53-50.86,25.44,21.61-25.76,21.61-25.76Z" fill="#231f20"/>
      <path id="Path_49" data-name="Path 49" d="M331.64,104.1l4.4,4.06s9.01,2.29,10.35-.75-3.55-7.42-3.55-7.42l-11.2,4.12Z" fill="#ffb4a3"/>
      <path id="Path_50" data-name="Path 50" d="M331.64,105.93s10.41-4.66,13.57-4.82,17.55,1.42,20.23,4.43a3.937,3.937,0,0,1,.81,4.4H331.64v-4.02Z" fill="#231f20"/>
      <path id="Path_51" data-name="Path 51" d="M207.21,29.36a6.689,6.689,0,0,0,.54,3.87,5.7,5.7,0,0,0,2.08,2.71,4.8,4.8,0,0,0,4.91-.16.806.806,0,0,0,.37-.36c.11-.28-.09-.59-.28-.81l-2.36-3.03c-1.09-1.4-1.82-2.9-2.77-4.34-.5-.77-.81-.58-1.48.11a4.091,4.091,0,0,0-1.01,2.01Z" fill="#ffb4a3"/>
      <path id="Path_52" data-name="Path 52" d="M241.06,55.66c-.64,8.88-15.32,12.78-15.32,12.78-7.2-7.58-1.85-16.34-1.85-16.34v-.13l-.27-4.37L223,37.24l-.16-2.72v-.09l-5.78,2.08s-3.91-1.37-4.58-1.79-2.08-2.74-3.34-5.62,2.72-4.47,2.72-4.47,11.61-2.56,16.72-4.87a9.907,9.907,0,0,1,9.35.81s3.76,26.22,3.13,35.09Z" fill="#007aff"/>
      <path id="Path_53" data-name="Path 53" d="M241.06,55.66c-.64,8.88-15.32,12.78-15.32,12.78-7.2-7.58-1.85-16.34-1.85-16.34v-.13l-.27-4.37L223,37.24l-.16-2.72v-.09l-5.78,2.08s-3.91-1.37-4.58-1.79-2.08-2.74-3.34-5.62,2.72-4.47,2.72-4.47,11.61-2.56,16.72-4.87a9.907,9.907,0,0,1,9.35.81s3.76,26.22,3.13,35.09Z" fill="url(#linear-gradient-14)"/>
      <path id="Path_54" data-name="Path 54" d="M227.95,44.59a13.465,13.465,0,0,1-.94,3.86c-.77,1.72-1.83,2.3-3.14,3.65.12-.2.1-.22,0-.13l-.27-4.37.06-.15c.73-1.8-.11-3.89-.25-5.84-.11-1.45-.26-2.9-.43-4.36l-.17-1.31c-.11-.81-.26-1.11,0-1.4a2.2,2.2,0,0,1,.58-.37,6.632,6.632,0,0,1,2.76-.38,1.614,1.614,0,0,1,1.27.43,1.826,1.826,0,0,1,.31.81,29.843,29.843,0,0,1,.22,9.57Z" fill="url(#linear-gradient-15)"/>
      <path id="Path_55" data-name="Path 55" d="M194.31,27.08c.1,4.16,2.14,8.03,4.59,11.4a3.456,3.456,0,0,1,.81,1.62c.15,1.15-.81,2.1-1.57,2.99a12.9,12.9,0,0,0-2.65,9.16,26.606,26.606,0,0,0,2.77,9.34,58.152,58.152,0,0,0,13.46,18.24,6.231,6.231,0,0,1,1.8,2.21,1.986,1.986,0,0,1-.75,2.5c-.97.45-2.06-.26-2.87-.96A57.24,57.24,0,0,1,192.35,56.1c-1.04-3.64-1.67-7.71.06-11.08a13.574,13.574,0,0,0,1.57-3.17c.55-2.48-1.38-4.75-2.54-7.01a12.678,12.678,0,0,1-.3-10.75c.81-1.75,4.06-6.91,6.42-5.39-1.62,2.72-3.33,4.91-3.25,8.38Z" fill="#007aff" opacity="0.47" style="isolation: isolate"/>
      <path id="Path_56" data-name="Path 56" d="M176.97,34.1c.48,4.13,2.88,7.8,5.64,10.91a3.918,3.918,0,0,1,.97,1.53c.25,1.14-.62,2.17-1.29,3.12a12.892,12.892,0,0,0-1.78,9.38,26.655,26.655,0,0,0,3.64,9.04A58.094,58.094,0,0,0,199.26,85a6.226,6.226,0,0,1,2,2.02,1.986,1.986,0,0,1-.52,2.56c-.92.54-2.08-.07-2.94-.69a57.317,57.317,0,0,1-20.04-25.72c-1.37-3.53-2.39-7.52-.97-11.03a13.911,13.911,0,0,0,1.27-3.3c.32-2.53-1.81-4.6-3.17-6.75a12.694,12.694,0,0,1-1.29-10.67c.62-1.83,3.4-7.26,5.89-5.97-1.42,2.86-2.91,5.2-2.51,8.65Z" fill="#007aff" opacity="0.47" style="isolation: isolate"/>
    </g>
  </g>
</svg>
