<svg xmlns="http://www.w3.org/2000/svg" width="230.012" height="346.2" viewBox="0 0 230.012 346.2">
  <g id="fitness" transform="translate(-135 -76.9)">
    <g id="device_fitness-app-77">
      <path id="Path_57" data-name="Path 57" d="M156.6,78.8H338.1a19.674,19.674,0,0,1,19.7,19.7V401.6a19.674,19.674,0,0,1-19.7,19.7H156.6a19.674,19.674,0,0,1-19.7-19.7V98.4A19.653,19.653,0,0,1,156.6,78.8Z" fill="#007aff"/>
      <path id="Path_58" data-name="Path 58" d="M339.8,423.1h-185A19.845,19.845,0,0,1,135,403.3V96.7a19.845,19.845,0,0,1,19.8-19.8H339.9a19.845,19.845,0,0,1,19.8,19.8V403.4A19.911,19.911,0,0,1,339.8,423.1ZM154.8,80.6a16.089,16.089,0,0,0-16.1,16.1V403.4a16.09,16.09,0,0,0,16.1,16.1H339.9A16.09,16.09,0,0,0,356,403.4V96.7a16.089,16.089,0,0,0-16.1-16.1Z" fill="#093f68"/>
      <path id="Path_59" data-name="Path 59" d="M152.4,113.3H342.2a5.121,5.121,0,0,1,5.1,5.1V376.1a5.121,5.121,0,0,1-5.1,5.1H152.4a5.121,5.121,0,0,1-5.1-5.1V118.4A5.188,5.188,0,0,1,152.4,113.3Z" fill="#093f68"/>
      <path id="Path_60" data-name="Path 60" d="M337.9,383H156.7a11.182,11.182,0,0,1-11.2-11.2V122.7a11.182,11.182,0,0,1,11.2-11.2H337.9a11.182,11.182,0,0,1,11.2,11.2V371.8A11.182,11.182,0,0,1,337.9,383ZM156.7,115.2a7.49,7.49,0,0,0-7.5,7.5h0V371.8a7.49,7.49,0,0,0,7.5,7.5H337.9a7.49,7.49,0,0,0,7.5-7.5V122.7a7.49,7.49,0,0,0-7.5-7.5Z" fill="#093f68"/>
      <circle id="Ellipse_5" data-name="Ellipse 5" cx="2.9" cy="2.9" r="2.9" transform="translate(215.9 94.9)" fill="#093f68"/>
      <path id="Path_61" data-name="Path 61" d="M278.7,99.7H232.6a1.851,1.851,0,0,1-.1-3.7h46.1a1.851,1.851,0,0,1,.1,3.7Z" fill="#093f68"/>
      <circle id="Ellipse_6" data-name="Ellipse 6" cx="12.1" cy="12.1" r="12.1" transform="translate(235.2 388)" fill="#093f68"/>
    </g>
    <g id="paper_fitness-app-77">
      <path id="Path_62" data-name="Path 62" d="M191.2,91.4s-25.5,2.2-25.5,43.9V381.2H332.3V135.3c0-18.7,11.6-43.9,11.6-43.9Z" fill="#fff"/>
      <path id="Path_63" data-name="Path 63" d="M332.3,383H165.7a1.9,1.9,0,0,1-1.9-1.9h0V135.3c0-42.8,26.9-45.7,27.2-45.7H343.9a1.95,1.95,0,0,1,1.9,1.8,2.353,2.353,0,0,1-.2.8c-.1.2-11.4,25-11.4,43.1V381.2A1.95,1.95,0,0,1,332.3,383Zm-164.8-3.7H330.4v-244c0-15.6,7.6-35,10.6-42H191.3c-1.7.2-23.7,3.4-23.7,42v244Z" fill="#093f68"/>
      <path id="Path_64" data-name="Path 64" d="M191.2,91.4s20.9,6.4,21.4,35H363.2s3.5-20-19.3-35Z" fill="#fff"/>
      <path id="Path_65" data-name="Path 65" d="M363.2,128.3H212.5a1.95,1.95,0,0,1-1.9-1.8c-.5-26.9-19.3-33-20.1-33.3a1.836,1.836,0,0,1-1.2-2.3,1.714,1.714,0,0,1,1.7-1.3H343.7a1.689,1.689,0,0,1,1,.3c23.5,15.4,20.2,36,20.1,36.9A1.631,1.631,0,0,1,363.2,128.3Zm-148.9-3.7H361.5c.3-4.8-.5-19.5-18.2-31.3H198.5C204.9,97.7,213.4,106.9,214.3,124.6Z" fill="#093f68"/>
    </g>
    <g id="heartbeat_fitness-app-77">
      <g id="zgp30Y_fitness-app-77">
        <path id="Path_66" data-name="Path 66" d="M249.2,240.4c-2.4-2.2-4.7-4.4-7.1-6.6L222,216.1a164.794,164.794,0,0,1-12.9-12.2,44.06,44.06,0,0,1-8.7-13.1,45.447,45.447,0,0,1-2.7-10.4,61.784,61.784,0,0,1-.5-9.6c.5-11.2,7.3-20.6,17.6-24,11.1-3.6,20.8-1.1,29.1,6.9a31.814,31.814,0,0,1,4.9,6.2,2.186,2.186,0,0,1,.3.5l.4-.6a31.444,31.444,0,0,1,12.4-11.6,27.228,27.228,0,0,1,14.6-2.9,26.279,26.279,0,0,1,15.3,6.2,25.32,25.32,0,0,1,8.9,15.8,38.576,38.576,0,0,1,.2,9.6,50.553,50.553,0,0,1-1.7,10.2,39.566,39.566,0,0,1-7.5,13.8,96.89,96.89,0,0,1-11.5,11.6c-6.1,5.4-12.3,10.7-18.4,16.1-4.2,3.7-8.2,7.5-12.4,11.3Z" fill="#f56132"/>
        <path id="Path_67" data-name="Path 67" d="M249.2,242.2a1.746,1.746,0,0,1-1.2-.4l-2.3-2.1c-1.6-1.5-3.2-3-4.8-4.4-5.6-4.9-11.2-9.9-16.8-14.8l-3.3-2.9c-4.6-3.9-8.9-8-13.1-12.3a47.682,47.682,0,0,1-9.1-13.6,40.943,40.943,0,0,1-2.8-10.8,65.684,65.684,0,0,1-.5-9.9c.5-12,7.9-22.1,18.9-25.7,11.5-3.8,22-1.3,31,7.4a30.1,30.1,0,0,1,4,4.7,34,34,0,0,1,12-10.6,29.03,29.03,0,0,1,15.6-3.1,28.162,28.162,0,0,1,26,23.5,42.551,42.551,0,0,1,.3,10.1,47.992,47.992,0,0,1-1.8,10.6,41.148,41.148,0,0,1-7.8,14.4,101.155,101.155,0,0,1-11.8,11.8c-2.8,2.5-5.6,4.9-8.4,7.3-3.4,2.9-6.7,5.9-10.1,8.8-2.9,2.5-5.7,5.1-8.5,7.7l-3.9,3.6-.2.2A2.389,2.389,0,0,1,249.2,242.2Zm-24.9-95a27.267,27.267,0,0,0-8.9,1.5c-9.5,3.1-15.9,11.9-16.3,22.3a57.914,57.914,0,0,0,.4,9.3,38.079,38.079,0,0,0,2.6,9.9,42.74,42.74,0,0,0,8.4,12.6,162.023,162.023,0,0,0,12.8,12l3.3,2.9c5.6,4.9,11.2,9.9,16.8,14.8,1.6,1.5,3.3,3,4.9,4.5l1,.9,3-2.7c2.8-2.6,5.7-5.2,8.5-7.8,3.3-3,6.7-5.9,10.1-8.9,2.8-2.4,5.6-4.9,8.3-7.3a101.375,101.375,0,0,0,11.3-11.4,37.171,37.171,0,0,0,7.1-13.1,46.79,46.79,0,0,0,1.7-9.8,40.337,40.337,0,0,0-.2-9.2,24.285,24.285,0,0,0-22.6-20.4,24.7,24.7,0,0,0-13.6,2.7,29.474,29.474,0,0,0-11.7,11l-.4.6a1.7,1.7,0,0,1-1.6.9,2.088,2.088,0,0,1-1.6-.8l-.3-.5a37.412,37.412,0,0,0-4.6-5.9c-5.6-5.4-11.7-8.1-18.4-8.1Z" fill="#093f68"/>
      </g>
      <path id="Path_68" data-name="Path 68" d="M236.6,212.6a1.743,1.743,0,0,1-1.7-1.2l-5.4-14.1H195.4a1.856,1.856,0,1,1-.3-3.7h35.6a1.839,1.839,0,0,1,1.7,1.2l4,10.2,10-33.7a1.922,1.922,0,0,1,1.8-1.3,2.021,2.021,0,0,1,1.8,1.4l7.5,27.4c6.1-14.9,6.3-14.9,8-14.5a1.927,1.927,0,0,1,1.5,1.9c.1.8,1.7,6.7,3.4,12.4h32.8a1.856,1.856,0,1,1,.3,3.7H268.9a1.922,1.922,0,0,1-1.8-1.3c-1.1-3.8-2-6.9-2.6-9.3-1.5,3.6-3.7,8.8-5.7,13.6a1.879,1.879,0,0,1-2.4,1,2.163,2.163,0,0,1-1.1-1.2l-7.2-26.4-9.7,32.7a2.375,2.375,0,0,1-1.8,1.2Z" fill="#fff"/>
    </g>
    <g id="chart_fitness-app-77">
      <path id="Path_69" data-name="Path 69" d="M302.3,360.5H196.1a11.822,11.822,0,0,1-11.8-11.8V288.4a11.822,11.822,0,0,1,11.8-11.8H302.3a11.822,11.822,0,0,1,11.8,11.8v60.3A11.758,11.758,0,0,1,302.3,360.5ZM196.1,280.4a8.066,8.066,0,0,0-8.1,8.1v60.3a8.066,8.066,0,0,0,8.1,8.1H302.3a8.066,8.066,0,0,0,8.1-8.1V288.5a8.066,8.066,0,0,0-8.1-8.1Z" fill="#dfeaef"/>
      <path id="Path_70" data-name="Path 70" d="M275.4,256.9H223.1a1.817,1.817,0,0,1-1.8-1.9,1.793,1.793,0,0,1,1.8-1.8h52.3a1.817,1.817,0,0,1,1.8,1.9A1.792,1.792,0,0,1,275.4,256.9Z" fill="#dfeaef"/>
      <path id="Path_71" data-name="Path 71" d="M226.4,344.5a28.8,28.8,0,1,1,28.8-28.8A28.807,28.807,0,0,1,226.4,344.5Zm0-52a23.2,23.2,0,1,0,23.2,23.2h0a23.217,23.217,0,0,0-23.2-23.2Z" fill="#dfeaef"/>
      <path id="Path_72" data-name="Path 72" d="M226.4,345.4a29.7,29.7,0,1,1,29.7-29.7h0a3.705,3.705,0,0,1-7.4.4v-.4A22.3,22.3,0,1,0,226.4,338a3.705,3.705,0,0,1,.4,7.4Z" fill="#70cc40"/>
      <path id="Path_73" data-name="Path 73" d="M297.4,310.7H265.9a3.705,3.705,0,0,1,0-7.4h31.5a3.705,3.705,0,0,1,.4,7.4Z" fill="#dfeaef"/>
      <path id="Path_74" data-name="Path 74" d="M287.2,332H265.9a3.7,3.7,0,0,1,0-7.4h21.3a3.757,3.757,0,0,1,3.7,3.7A3.691,3.691,0,0,1,287.2,332Z" fill="#dfeaef"/>
      <path id="Path_75" data-name="Path 75" d="M240,318.5H212.8a1.856,1.856,0,0,1-.3-3.7H240a1.856,1.856,0,0,1,.3,3.7Z" fill="#093f68"/>
      <path id="Path_76" data-name="Path 76" d="M216.2,310.1h3.3a1.324,1.324,0,0,1,1.3,1.3V322a1.324,1.324,0,0,1-1.3,1.3h-3.3a1.324,1.324,0,0,1-1.3-1.3V311.3A1.24,1.24,0,0,1,216.2,310.1Z" fill="#093f68"/>
      <path id="Path_77" data-name="Path 77" d="M218.4,325.1h-1.2a4.225,4.225,0,0,1-4.2-4.2v-8.5a4.225,4.225,0,0,1,4.2-4.2h1.2a4.225,4.225,0,0,1,4.2,4.2V321A4.14,4.14,0,0,1,218.4,325.1Zm-1.1-13.2a.472.472,0,0,0-.5.5V321a.472.472,0,0,0,.5.5h1.2a.472.472,0,0,0,.5-.5v-8.5a.472.472,0,0,0-.5-.5Z" fill="#093f68"/>
      <path id="Path_78" data-name="Path 78" d="M233.3,310.1h3.3a1.324,1.324,0,0,1,1.3,1.3V322a1.324,1.324,0,0,1-1.3,1.3h-3.3A1.324,1.324,0,0,1,232,322V311.3A1.24,1.24,0,0,1,233.3,310.1Z" fill="#093f68"/>
      <path id="Path_79" data-name="Path 79" d="M235.5,325.1h-1.2a4.225,4.225,0,0,1-4.2-4.2v-8.5a4.225,4.225,0,0,1,4.2-4.2h1.2a4.225,4.225,0,0,1,4.2,4.2V321A4.14,4.14,0,0,1,235.5,325.1Zm-1.1-13.2a.472.472,0,0,0-.5.5V321a.472.472,0,0,0,.5.5h1.2a.472.472,0,0,0,.5-.5v-8.5a.472.472,0,0,0-.5-.5Z" fill="#093f68"/>
    </g>
  </g>
</svg>
