<svg xmlns="http://www.w3.org/2000/svg" xmlns:xlink="http://www.w3.org/1999/xlink" width="346.24" height="451.846" viewBox="0 0 346.24 451.846">
  <defs>
    <linearGradient id="linear-gradient" x1="2.084" y1="20.085" x2="4.244" y2="21.637" gradientUnits="objectBoundingBox">
      <stop offset="0" stop-color="#231f20" stop-opacity="0"/>
      <stop offset="1" stop-color="#231f20"/>
    </linearGradient>
    <linearGradient id="linear-gradient-2" x1="0.28" y1="6.56" x2="1.28" y2="6.56" xlink:href="#linear-gradient"/>
    <linearGradient id="linear-gradient-3" x1="14.805" y1="27.522" x2="16.2" y2="23.48" xlink:href="#linear-gradient"/>
    <linearGradient id="linear-gradient-4" x1="1.434" y1="201.922" x2="1.434" y2="191.246" xlink:href="#linear-gradient"/>
    <linearGradient id="linear-gradient-5" x1="1.573" y1="23.173" x2="1.715" y2="19.305" xlink:href="#linear-gradient"/>
  </defs>
  <g id="authentication" transform="translate(-104.385 -12.776)">
    <path id="background_authentication-1-91" d="M423.83,359.37c-9.52,32.93-29.13,63.99-58.26,82.1-17.59,10.94-37.9,16.85-58.34,20.27-2.1.35-4.19.65-6.33.91a216.866,216.866,0,0,1-67.89-1.51c-33.02-6.09-64.47-20.38-87.79-44.58-32.93-34.31-36.17-89.12-20.35-133.93,6.33-17.92,15.2-34.92,20.27-53.2,11.77-43.34.39-90.2,10.39-134,2.69-11.89,7.08-23.66,14.52-33.35,6.52-8.71,15.28-15.38,24.32-21.38,27.03-17.73,58.96-29.97,91.27-27.64s64.47,21.3,76.53,51.34c8.28,20.63,6.68,44.09,14.21,64.96,8.75,24.28,28.87,42.7,40.27,65.86,9.4,19.14,12.51,40.72,14.29,62.06,2.85,34.2,2.48,69.12-7.08,102.08Z" fill="#007aff" opacity="0.18" style="isolation: isolate"/>
    <g id="screen_authentication-1-91">
      <path id="Path_1" data-name="Path 1" d="M449.81,78.51V275.44a23.293,23.293,0,0,1-23.29,23.29H128.49a23.293,23.293,0,0,1-23.29-23.29V78.51a24.266,24.266,0,0,1,.16-2.69,23.272,23.272,0,0,1,23.13-20.61H426.51a23.272,23.272,0,0,1,23.13,20.61,21.949,21.949,0,0,1,.16,2.69Z" fill="#fff" stroke="#68e1fd" stroke-miterlimit="10" stroke-width="1.63"/>
      <path id="Path_2" data-name="Path 2" d="M133.03,121H300.91a8.757,8.757,0,0,1,8.76,8.76h0a8.757,8.757,0,0,1-8.76,8.76H133.03a8.757,8.757,0,0,1-8.76-8.76h0a8.757,8.757,0,0,1,8.76-8.76Z" fill="#007aff" opacity="0.18" style="isolation: isolate"/>
      <rect id="Rectangle_1" data-name="Rectangle 1" width="185.41" height="120.23" rx="8.76" transform="translate(124.26 145.6)" fill="#007aff" opacity="0.18" style="isolation: isolate"/>
      <path id="Path_3" data-name="Path 3" d="M287.73,140.52c3.99,6.51-1.09,97.69,2.25,102.24,7.84,10.66,24.65,41.22,23.99,54.46-12.55.46-31.26.28-43.66-1.66-2.28-.35-4.7-.82-6.33-2.42a12.153,12.153,0,0,1-2.76-5.57l-14.93-51.3c-6.03-20.71-12.05-42.93-5.54-63.5,3.28-10.37,9.55-19.51,15.73-28.46,3.46-5.07-2.14-14.39,4.29-15.47,6.74-1.14,23.6,6.21,26.95,11.67Z" fill="rgba(0,0,0,0)"/>
      <path id="Path_4" data-name="Path 4" d="M449.64,75.82H105.36a23.272,23.272,0,0,1,23.13-20.61H426.51A23.272,23.272,0,0,1,449.64,75.82Z" fill="#007aff"/>
      <rect id="Rectangle_2" data-name="Rectangle 2" width="185.41" height="17.53" rx="8.76" transform="translate(124.26 91.49)" fill="#007aff" opacity="0.18" style="isolation: isolate"/>
    </g>
    <g id="hand_phone_authentication-1-91">
      <path id="Path_5" data-name="Path 5" d="M300.92,402.25v60.38a216.866,216.866,0,0,1-67.89-1.51c-.48-9.54-1.76-30.07-4.09-39.8-3.08-12.92-14.12-16-23.98-27.65s-13.53-56-15.98-63.33-17.2-20.27-24.9-28.89a14.731,14.731,0,0,1-2.46-17.24s36.26,17.24,36.26,13.54-8.28-11.67-8.28-11.67-21.53-10.13-29.22-18.77-2.76-19-2.76-19l46.12,16.8,4.29-3.67-17.82-8.61s-17.86-9.23-28.31-17.23-6.12-27.03-6.12-27.03L222.8,239.3l-7.99-17.2s-39.96-12.31-51.03-22.8-7.99-22.14-7.99-22.14,80.56,19.06,91.01,25.23,44.88,80.56,46.09,84.22,8.04,115.64,8.04,115.64Z" fill="#ffaa71"/>
      <path id="Path_6" data-name="Path 6" d="M238.94,347.61l-10.75,37.21s-26.75,2.76-35.67-36.9,46.42-.32,46.42-.32Z" fill="url(#linear-gradient)"/>
      <rect id="Rectangle_3" data-name="Rectangle 3" width="110.56" height="220.15" rx="19.47" transform="translate(166.24 127.99)" fill="#007aff"/>
      <rect id="Rectangle_4" data-name="Rectangle 4" width="110.56" height="220.15" rx="19.47" transform="translate(166.24 127.99)" fill="url(#linear-gradient-2)"/>
      <rect id="Rectangle_5" data-name="Rectangle 5" width="110.56" height="215.46" rx="19.27" transform="translate(166.24 127.76)" fill="#007aff"/>
      <rect id="Rectangle_6" data-name="Rectangle 6" width="99.44" height="193.44" rx="17.31" transform="translate(172.09 132.74)" fill="#fff"/>
      <path id="Path_7" data-name="Path 7" d="M224.58,219.09a43.355,43.355,0,1,0,43.34,43.37,43.361,43.361,0,0,0-43.34-43.37Zm0,79.34a35.29,35.29,0,1,1,35.28-35.3h0a35.329,35.329,0,0,1-35.28,35.3Z" fill="#007aff" opacity="0.18" style="isolation: isolate"/>
      <path id="Path_8" data-name="Path 8" d="M203.94,255.15a1.883,1.883,0,0,1-.62-.11,1.659,1.659,0,0,1-.91-2.14c0-.15,6.43-15.5,22.15-15.02a1.659,1.659,0,0,1,1.6,1.7h0a1.622,1.622,0,0,1-1.65,1.6h-.04c-13.5-.38-18.8,12.41-19,12.96a1.625,1.625,0,0,1-1.53,1.03Z" fill="#007aff"/>
      <path id="Path_9" data-name="Path 9" d="M246.33,261.43a1.648,1.648,0,0,1-1.65-1.56,18.714,18.714,0,0,0-11.4-16.85,1.643,1.643,0,0,1-1-2.09,1.624,1.624,0,0,1,2.05-1.03.06.06,0,0,1,.04.01,21.752,21.752,0,0,1,13.6,19.77,1.667,1.667,0,0,1-1.56,1.74h-.09Z" fill="#007aff"/>
      <path id="Path_10" data-name="Path 10" d="M242.99,274.39a1.633,1.633,0,0,1-1.29-2.65,14.112,14.112,0,0,0,2.28-6.07,1.648,1.648,0,0,1,3.29.19,1.1,1.1,0,0,1-.02.18,17.392,17.392,0,0,1-2.99,7.71,1.657,1.657,0,0,1-1.27.63Z" fill="#007aff"/>
      <path id="Path_11" data-name="Path 11" d="M209.44,257.16a1.56,1.56,0,0,1-.67-.15,1.645,1.645,0,0,1-.82-2.17,19.086,19.086,0,0,1,14.35-11.07c4.9-.8,9.58.46,12.17,3.27a1.648,1.648,0,1,1-2.32,2.34,1,1,0,0,1-.1-.11c-1.82-1.98-5.45-2.86-9.23-2.24a15.751,15.751,0,0,0-11.87,9.16,1.688,1.688,0,0,1-1.51.98Z" fill="#007aff"/>
      <path id="Path_12" data-name="Path 12" d="M229.06,285.55a1.63,1.63,0,0,1-1.65-1.61,1.679,1.679,0,0,1,.5-1.2c16.96-16.53,7.6-28.92,7.6-29.04a1.649,1.649,0,0,1,2.54-2.01c.11.14,11.18,14.84-7.87,33.41a1.656,1.656,0,0,1-1.11.46Z" fill="#007aff"/>
      <path id="Path_13" data-name="Path 13" d="M203.84,270.27a1.652,1.652,0,0,1-1.51-.96c-1.49-3.34-.54-9.51-.43-10.2a1.678,1.678,0,0,1,1.89-1.37,1.655,1.655,0,0,1,1.36,1.89h0c-.35,2.23-.63,6.47.19,8.31a1.635,1.635,0,0,1-1.49,2.32h0Z" fill="#007aff"/>
      <path id="Path_14" data-name="Path 14" d="M206.72,277.99a1.632,1.632,0,0,1-.99-2.95c2.65-1.99,1.93-9.33.84-13.5a1.646,1.646,0,0,1,1.18-2,1.613,1.613,0,0,1,1.99,1.14.06.06,0,0,0,.01.04c.35,1.27,3.22,13.01-2.04,16.95a1.6,1.6,0,0,1-.99.33Z" fill="#007aff"/>
      <path id="Path_15" data-name="Path 15" d="M210.83,281.8a1.646,1.646,0,0,1-.87-3.04c.25-.16,5.83-3.8,3.5-13.12-1.51-6.05,0-9.84,1.66-11.94a12.454,12.454,0,0,1,9.87-4.6,1.59,1.59,0,0,1,1.68,1.5v.08a1.64,1.64,0,0,1-1.57,1.7h-.01a9.29,9.29,0,0,0-7.35,3.31c-1.66,2.19-2.04,5.37-1.09,9.16,2.93,11.73-4.64,16.47-4.95,16.72a1.643,1.643,0,0,1-.86.24Z" fill="#007aff"/>
      <path id="Path_16" data-name="Path 16" d="M227.91,273.56a1.639,1.639,0,0,1-1.61-1.66,1.662,1.662,0,0,1,.34-.98c2.44-3.19,4.4-7.99,3.43-10.51a2.706,2.706,0,0,0-2.33-1.7c-1.81-.34-3.1-.14-3.88.62-1.36,1.27-1.17,4.27-.99,5.29a1.648,1.648,0,1,1-3.19.83,1,1,0,0,1-.04-.24c-.1-.54-.91-5.43,1.9-8.22,1.58-1.57,3.88-2.08,6.81-1.52a5.977,5.977,0,0,1,4.79,3.8c1.49,3.94-.98,9.85-3.9,13.67a1.613,1.613,0,0,1-1.34.61Z" fill="#007aff"/>
      <path id="Path_17" data-name="Path 17" d="M216.15,284.17a1.652,1.652,0,0,1-1.64-1.66,1.627,1.627,0,0,1,.5-1.17c4.56-4.43,4.43-11.06,4.43-11.12a1.651,1.651,0,1,1,3.3-.1c0,.33.19,8.12-5.43,13.58a1.653,1.653,0,0,1-1.15.47Z" fill="#007aff"/>
      <path id="Path_18" data-name="Path 18" d="M222.25,285.94a1.7,1.7,0,0,1-.7-.16,1.63,1.63,0,0,1-.79-2.17h0l3.32-7.03a1.644,1.644,0,0,1,2.97,1.41l-3.32,7.03a1.644,1.644,0,0,1-1.49.94Z" fill="#007aff"/>
      <path id="Path_19" data-name="Path 19" d="M283.98,315.16c-5.81-10.8-11.78-21.66-19.72-31.02s-18.09-17.25-29.9-20.52c-2.84-.8-6.33-1.11-8.26,1.17-1.27,1.62-1.27,3.95-.98,6.03a43.554,43.554,0,0,0,7.66,19.3c3.1,4.36,6.99,8.12,9.94,12.58s4.98,9.96,3.69,15.14c-7.32,29.26-15.09,61.87,4.32,84.96a22.245,22.245,0,0,0,6.93,5.98,24.594,24.594,0,0,0,8.14,1.89q7.2.735,14.43.79a21.93,21.93,0,0,0,9.25-1.38c8.23-3.71,9.39-14.72,9.35-23.75-.1-24.86-3.08-49.23-14.84-71.16Z" fill="#ffaa71"/>
      <circle id="Ellipse_1" data-name="Ellipse 1" cx="6.07" cy="6.07" r="6.07" transform="translate(198.28 170.74)" fill="#007aff" opacity="0.18" style="isolation: isolate"/>
      <circle id="Ellipse_2" data-name="Ellipse 2" cx="6.07" cy="6.07" r="6.07" transform="translate(214.28 170.74)" fill="#007aff" opacity="0.18" style="isolation: isolate"/>
      <circle id="Ellipse_3" data-name="Ellipse 3" cx="6.07" cy="6.07" r="6.07" transform="translate(230.26 170.74)" fill="#007aff" opacity="0.18" style="isolation: isolate"/>
      <path id="Path_20" data-name="Path 20" d="M276.46,300.87s2.53,1.62,3.23-1.15,3.91-32.51,3.91-32.51l-7.14-14.53Z" fill="url(#linear-gradient-3)"/>
      <path id="Path_21" data-name="Path 21" d="M207.63,332.23h27.43a2.889,2.889,0,0,1,2.89,2.88h0a2.883,2.883,0,0,1-2.89,2.88H207.63a2.889,2.889,0,0,1-2.89-2.88h0A2.883,2.883,0,0,1,207.63,332.23Z" fill="url(#linear-gradient-4)"/>
    </g>
    <g id="thick_authentication-1-91">
      <circle id="Ellipse_4" data-name="Ellipse 4" cx="36.04" cy="36.04" r="36.04" transform="translate(334.82 144.85)" fill="#007aff" opacity="0.18" style="isolation: isolate"/>
      <path id="Path_22" data-name="Path 22" d="M362.87,194.92l-26.14-28.94a5.558,5.558,0,0,1-.43-7.14,5.392,5.392,0,0,1,7.58-.88,5.17,5.17,0,0,1,.64.6l21,23.26a3.64,3.64,0,0,0,5.15.24c.06-.05.11-.11.17-.16l50.37-52.05a5.4,5.4,0,0,1,7.63-.13,5.266,5.266,0,0,1,.58.66,5.583,5.583,0,0,1-.66,7.14l-55.73,57.57a6.981,6.981,0,0,1-9.87.13c-.1-.1-.2-.2-.29-.3Z" fill="url(#linear-gradient-5)"/>
      <path id="Path_23" data-name="Path 23" d="M362.87,191.92l-26.14-28.94a5.558,5.558,0,0,1-.43-7.14,5.377,5.377,0,0,1,7.56-.88,4.847,4.847,0,0,1,.66.62l21,23.19a3.65,3.65,0,0,0,5.15.25c.06-.05.11-.11.17-.16l50.37-52.02a5.4,5.4,0,0,1,7.63-.13,5.266,5.266,0,0,1,.58.66,5.583,5.583,0,0,1-.66,7.14l-55.73,57.57a6.966,6.966,0,0,1-9.85.17c-.11-.1-.21-.21-.31-.32Z" fill="#007aff"/>
    </g>
  </g>
</svg>
